<?xml version="1.0" standalone="no"?>
<!DOCTYPE svg PUBLIC "-//W3C//DTD SVG 20010904//EN" "http://www.w3.org/TR/2001/REC-SVG-20010904/DTD/svg10.dtd">
<!-- Created using Krita: https://krita.org -->
<svg xmlns="http://www.w3.org/2000/svg" 
    xmlns:xlink="http://www.w3.org/1999/xlink"
    xmlns:krita="http://krita.org/namespaces/svg/krita"
    xmlns:sodipodi="http://sodipodi.sourceforge.net/DTD/sodipodi-0.dtd"
    width="319.681pt"
    height="218.161pt"
    viewBox="0 0 319.681 218.161">
<defs/>
<path id="shape11" transform="translate(56.6719528376583, 103.48922544128)" fill="#84756a" stroke-opacity="0" stroke="#000000" stroke-width="0" stroke-linecap="square" stroke-linejoin="bevel" d="M0.0129484 44.6196C-0.421128 44.242 10.1063 47.2863 24.4169 47.8286C34.857 48.2241 46.9542 46.0181 57.8108 44.8781C63.422 44.289 68.9248 45.074 73.2265 44.3561C84.5542 43.1163 102.719 42.8152 108.02 43.6494C107.5 36.9143 97.3515 23.1572 95.4965 21.7559C90.9433 18.3161 77.0247 8.05224 72.7481 5.58277C68.8918 3.35601 57.0121 -5.27856 45.1191 4.73642C35.5508 12.7938 9.29152 35.3269 0.0129484 44.6196" sodipodi:nodetypes="ccccccssc"/><path id="shape111" transform="translate(10.6013631230143, 117.572139527391)" fill="#af8e75" stroke-opacity="0" stroke="#000000" stroke-width="0" stroke-linecap="square" stroke-linejoin="bevel" d="M0 35.5944C3.99075 36.0742 8.02505 36.5764 18.9655 36.9959C26.9468 37.3018 36.195 37.448 44.4949 36.5663C48.7846 36.1105 52.9915 35.7915 56.2801 35.2362C62.2178 34.1524 75.341 35.2027 83.6487 34.8906C80.1678 32.23 59.1838 6.22849 55.9144 4.31833C52.9663 2.59591 43.8843 -4.08302 34.7922 3.66367C27.4773 9.89617 7.40217 27.3257 0.308757 34.5137" sodipodi:nodetypes="cccccssc"/><path id="shape12" transform="translate(220.150952634099, 109.028732158825)" fill="#af8e75" stroke-opacity="0" stroke="#000000" stroke-width="0" stroke-linecap="square" stroke-linejoin="bevel" d="M85.5848 41.4863C83.1166 39.3139 73.754 30.4469 63.9391 22.0886C55.2806 14.7153 43.1877 5.54731 40.3862 3.91057C37.4381 2.18816 31.1033 -2.96817 21.6124 2.32943C19.4153 3.55581 10.8013 8.99907 8.91826 13.6926C6.56006 19.5705 3.25292 30.9027 0 41.8741C14.5108 41.8221 22.6002 44.7882 41.6808 43.5135C61.8102 38.336 82.1086 42.9711 85.4305 42.5669" sodipodi:nodetypes="cssscccc"/><path id="shape13" transform="translate(66.8803545250756, 109.891620091503)" fill="#e0823d" stroke-opacity="0" stroke="#000000" stroke-width="0" stroke-linecap="square" stroke-linejoin="bevel" d="M0.00107243 42.9167C3.67562 43.0097 14.7761 43.7321 40.6291 43.1C56.7346 41.717 75.2268 38.7901 94.1399 39.7413C114.365 40.7584 134.699 39.029 151.404 40.6187C162.483 40.2504 173.093 43.2056 179.831 42.9691C179.809 32.8268 176.504 28.2644 172.158 19.7934C164.622 13.0051 157.905 10.9314 147.312 10.285C138.11 7.75766 108.467 -1.52463 103.474 0.215816C94.9095 -0.295348 71.8468 0.966945 55.5395 4.76854C44.5955 7.31984 37.3358 12.6194 37.143 13.2948C33.8467 14.5656 28.2054 18.1174 27.238 19.5155C25.2005 22.4601 22.5828 23.7311 18.8802 25.9271C13.1487 27.0667 12.7923 27.1697 7.66762 29.4739C2.10457 35.156 -0.0552849 37.649 0.00107243 41.9905" sodipodi:nodetypes="ccccccccccsccc"/><path id="shape14" transform="matrix(1 0 0 -1 6.11555490655894 195.283113560401)" fill="#dabca5" stroke-opacity="0" stroke="#000000" stroke-width="0" stroke-linecap="square" stroke-linejoin="bevel" d="M2.45608 42.1074C1.39639 41.8024 0.973392 41.6236 0 40.5716C0.944334 33.1056 18.9637 32.7386 22.4616 30.6912C15.914 28.2933 13.3337 27.8967 12.5753 25.6129C12.5304 21.7695 33.1861 22.5245 36.4881 20.3569C33.3109 16.9267 29.157 15.5996 28.7449 13.443C30.0259 11.3037 40.8563 11.2118 51.0256 9.27782C57.7783 7.99363 40.344 5.51668 47.3546 4.27704C94.5214 -2.67917 127.482 2.39651 131.356 1.54244C146.159 1.4542 183.006 0.280852 188.442 0.0450809C192.953 -0.261226 223.695 1.05714 230.345 2.07135C238.681 2.74347 253.784 1.32478 254.356 3.52144C253.954 7.00981 249.976 5.28702 249.434 8.42867C250.972 10.2206 264.724 12.9595 272.467 16.7672C275.824 20.9467 266.367 18.7064 266.85 21.6909C269.788 23.8501 291.582 26.9684 293.73 29.363C294.871 33.3411 292.218 31.4343 288.294 35.3342C292.336 37.8513 305.981 38.9705 306.017 43.6505C301.092 45.1315 294.27 44.5263 291.16 44.6759C285.739 44.9367 278.501 46.5261 270.701 46.1599C261.597 45.7324 253.521 42.4371 241.459 42.4775C233.026 42.5057 224.199 44.5079 214.838 44.8534C202.08 45.3244 188.697 45.8536 175.106 45.9846C162.933 46.1019 150.576 45.8301 138.636 46.0526C124.76 46.0074 111.3 43.1004 99.0211 42.4125C85.2288 41.6398 72.9272 42.826 63.2022 43.0513C50.4708 42.7082 41.8925 41.4202 39.5804 40.9281C38.1018 40.6134 33.3398 40.5889 27.3512 40.6907C21.961 40.7825 16.4789 41.6039 13.7068 41.7505C9.82021 41.9559 4.50283 42.8041 3.60704 42.0798" sodipodi:nodetypes="ccccccccccccccccccccccccccscsc"/><path id="shape03" transform="matrix(0.975241231100708 0.221143711556935 -0.221143711556935 0.975241231100708 111.060363014409 58.4601208280663)" fill="#ffffff" stroke="#000000" stroke-width="0.24000089552377" stroke-linecap="round" stroke-linejoin="round" d="M56.4352 24.609C56.9522 20.9809 56.9854 19.2841 56.0719 15.3401C54.5911 8.94608 52.1806 6.67404 47.6236 2.12635C45.7362 0.242778 43.9158 -1.30405 40.6369 1.65493C37.6325 4.36617 37.3988 7.36819 35.8996 9.67033C29.6746 10.1467 20.1865 11.6444 14.5977 15.7789C12.2741 14.4298 9.75812 11.9126 8.32429 11.2086C6.5039 10.3148 3.99251 9.91924 1.70614 14.5479C-0.29048 18.5899 -0.72295 25.444 1.42552 33.9522C3.9316 43.8766 9.92265 48.578 14.8538 50.8558C19.4806 52.9929 25.4916 51.9594 31.3142 51.0379C39.0761 49.8094 42.2635 47.0936 45.752 45.2594" sodipodi:nodetypes="csssccsssssc"/><path id="shape2" transform="translate(158.400591045688, 75.6464321650784)" fill="#ffffff" stroke-opacity="0" stroke="#000000" stroke-width="0" stroke-linecap="square" stroke-linejoin="bevel" d="M0 33.5405C1.39752 32.4805 16.8868 36.0435 32.9653 39.7988C47.545 43.2039 62.6091 46.7671 68.0903 47.1846C70.9063 43.9124 75.2227 39.7634 76.0302 38.3626C79.3383 32.6243 78.96 32.034 78.9629 28.2316C78.9673 22.4454 74.8295 20.423 74.7346 16.3591C75.4796 10.9322 77.8746 13.1547 78.8426 7.51119C78.9609 6.09108 78.9201 5.01912 78.6114 4.30191C78.1372 3.19997 77.7858 2.66864 75.6209 0.994949C73.236 -0.848923 69.8088 0.108317 67.5931 1.92821C64.8189 4.20692 64.3443 5.36403 62.8339 8.84298C62.0256 10.7046 62.3851 15.6843 63.1624 17.9972C63.9861 20.4478 64.9677 22.562 65.5968 25.3757C66.5456 29.6201 67.0498 30.2731 65.3348 33.7479C63.9548 36.5446 59.1109 35.833 57.0059 34.7805C55.0513 32.7658 52.3963 28.2393 51.0712 25.2836C49.5149 21.812 42.276 11.5109 41.8515 11.0615C36.9904 5.9156 30.7574 3.55674 27.3716 2.5927C23.5679 1.50966 13.9287 -1.16587 3.95735 2.18119" sodipodi:nodetypes="cccssccssssssscsssc"/><path id="shape15" transform="translate(99.4809046595584, 104.480550771804)" fill="#ffffff" stroke="#000000" stroke-width="0.24000089552377" stroke-linecap="round" stroke-linejoin="round" d="M7.44131 0C4.44877 1.51749 1.15433 5.63938 0.0699781 10.6906C-0.348638 12.6406 1.1402 16.5364 3.75083 17.5883C6.54028 18.7123 9.62894 18.6386 12.8157 17.1372C17.258 15.0442 18.8881 12.2699 21.2946 9.834" sodipodi:nodetypes="csssc"/><path id="shape112" transform="translate(146.297583491965, 95.8084186973524)" fill="#ffffff" stroke="#000000" stroke-width="0.24000089552377" stroke-linecap="round" stroke-linejoin="round" d="M15.8809 0C14.4108 0.74547 9.89388 2.21889 6.50354 4.85095C2.99245 7.57674 0.621638 11.4934 0.0699762 14.0632C-0.348633 16.0132 1.1402 19.909 3.75083 20.9609C6.5403 22.0848 9.62894 22.0112 12.8157 20.5098C17.258 18.4168 18.3714 15.8852 20.1653 13.116" sodipodi:nodetypes="cssssc"/><path id="shape04" transform="translate(104.804913164245, 70.1610211469214)" fill="#cccccc" fill-rule="evenodd" stroke-opacity="0" stroke="#000000" stroke-width="0" stroke-linecap="square" stroke-linejoin="bevel" d="M0.00216248 21.5085C4.07856 20.6868 9.56638 18.8416 12.5916 15.8817C16.5632 11.996 19.2723 10.3406 19.9108 5.90943C18.7108 6.34765 18.0578 6.06373 16.8578 6.86121C14.3778 5.36665 12.6906 0.836335 10.2105 0.0495472C8.00951 -0.282086 6.55462 1.10755 4.3115 2.53183C3.88344 5.07157 -0.106082 8.86784 0.00216248 21.5085Z" sodipodi:nodetypes="csccccc"/><path id="shape16" transform="matrix(0.883934572645211 -0.467610597915128 0.467610597915128 0.883934572645211 143.928438464091 108.045969263284)" fill="#717171" fill-rule="evenodd" stroke-opacity="0" stroke="#000000" stroke-width="0" stroke-linecap="square" stroke-linejoin="bevel" d="M4.64622 0C6.25342 1.29822 9.42293 3.20388 10.7298 6.16228C11.6358 8.21315 11.1387 11.8558 11.0173 13.8157C8.20161 13.8217 9.68326 14.3719 4.02048 12.9095C1.46318 12.2491 -0.68097 6.41521 0.202251 4.77495C2.18414 1.09433 0.709689 3.49314 4.64622 0Z" sodipodi:nodetypes="cscssc"/><path id="shape21" transform="translate(141.394068382485, 68.4136359333819)" fill="#ff9100" fill-rule="evenodd" stroke-opacity="0" stroke="#000000" stroke-width="0" stroke-linecap="square" stroke-linejoin="bevel" d="M0 7.30003C2.46613 11.4398 5.39919 15.2651 9.72004 16.9001C13.5244 18.3396 17.6401 17.8479 21.6001 18.1001C20.0255 10.7879 21.0783 7.12392 17.0065 2.78452C15.2116 -0.192339 11.4264 -0.626553 8.51998 0.745095C5.54787 2.9802 4.65108 5.18002 3.84001 7.42003C3.92612 6.88097 2.64611 6.84097 0 7.30003Z" sodipodi:nodetypes="csccccc"/><path id="shape3" transform="matrix(0.65426137572116 -0.756268505386452 0.756268505386452 0.65426137572116 188.811731656426 112.949306606233)" fill="#ff9700" fill-rule="evenodd" stroke-opacity="0" stroke="#000000" stroke-width="0" stroke-linecap="square" stroke-linejoin="bevel" d="M5.83147 13.6913C5.12968 12.05 -1.44243 2.80893 0.289674 1.63418C2.68651 0.00857665 2.7946 -1.96068 8.2041 4.26455C10.6611 7.09194 14.9627 8.25508 14.2041 14.4646C13.8071 17.7151 13.2961 22.3876 8.9598 20.8098C6.86933 16.5237 6.7822 15.9147 5.83147 13.6913Z" sodipodi:nodetypes="cssscs"/><path id="shape6" transform="translate(221.045603979086, 76.2207710721073)" fill="#cccccc" fill-rule="evenodd" stroke-opacity="0" stroke="#000000" stroke-width="0" stroke-linecap="square" stroke-linejoin="bevel" d="M2.58092 20.6401C1.44019 17.5754 -0.835057 13.9275 0.316707 10.1783C1.17871 7.37236 2.87381 3.92385 4.8886 1.70755C5.39683 1.14848 7.28916 0.880942 8.94094 0C11.0426 2.87245 10.5974 5.06573 10.381 7.32003C10.2 10.8572 8.54084 13.84 7.14093 16.9201C7.50437 17.6106 5.98436 18.8507 2.58092 20.6401Z" sodipodi:nodetypes="csscccc"/><ellipse id="shape8" transform="matrix(0.759824037856774 0.254846680735846 -0.295388665854788 0.737064272421797 174.995530803 82.8564546612825)" rx="4.56001701495163" ry="4.68001746271351" cx="4.56001701495163" cy="4.68001746271351" fill="#717171" fill-rule="evenodd" stroke-opacity="0" stroke="#000000" stroke-width="0" stroke-linecap="square" stroke-linejoin="bevel"/><ellipse id="shape011" transform="matrix(0.759824037856771 0.254846680735846 -0.295388665854788 0.737064272421795 183.903264404918 82.4627728423453)" rx="4.56001701495163" ry="4.68001746271351" cx="4.56001701495163" cy="4.68001746271351" fill="#717171" fill-rule="evenodd" stroke-opacity="0" stroke="#000000" stroke-width="0" stroke-linecap="square" stroke-linejoin="bevel"/><ellipse id="shape021" transform="matrix(0.759824037856771 0.254846680735846 -0.295388665854788 0.737064272421795 186.637428044593 90.2428658312293)" rx="4.56001701495163" ry="4.68001746271351" cx="4.56001701495163" cy="4.68001746271351" fill="#717171" fill-rule="evenodd" stroke-opacity="0" stroke="#000000" stroke-width="0" stroke-linecap="square" stroke-linejoin="bevel"/><ellipse id="shape031" transform="matrix(0.759824037856771 0.254846680735846 -0.295388665854788 0.737064272421795 178.635539193434 89.5557201378666)" rx="4.56001701495163" ry="4.68001746271351" cx="4.56001701495163" cy="4.68001746271351" fill="#cccccc" fill-rule="evenodd" stroke-opacity="0" stroke="#000000" stroke-width="0" stroke-linecap="square" stroke-linejoin="bevel"/><ellipse id="shape041" transform="matrix(0.759824037856771 0.254846680735846 -0.295388665854788 0.737064272421795 181.702501702714 97.1464237241953)" rx="4.56001701495163" ry="4.68001746271351" cx="4.56001701495163" cy="4.68001746271351" fill="#cccccc" fill-rule="evenodd" stroke-opacity="0" stroke="#000000" stroke-width="0" stroke-linecap="square" stroke-linejoin="bevel"/><ellipse id="shape05" transform="matrix(0.759824037856771 0.254846680735846 -0.295388665854788 0.737064272421795 190.265617804237 97.0485380788965)" rx="4.56001701495163" ry="4.68001746271351" cx="4.56001701495163" cy="4.68001746271351" fill="#cccccc" fill-rule="evenodd" stroke-opacity="0" stroke="#000000" stroke-width="0" stroke-linecap="square" stroke-linejoin="bevel"/><ellipse id="shape06" transform="matrix(0.271429519309231 0.0910380675041545 -0.105520751631543 0.263299120843514 190.184254157168 87.8120227974711)" rx="4.56001701495163" ry="4.68001746271351" cx="4.56001701495163" cy="4.68001746271351" fill="#ff9700" fill-rule="evenodd" stroke-opacity="0" stroke="#000000" stroke-width="0" stroke-linecap="square" stroke-linejoin="bevel"/><ellipse id="shape07" transform="matrix(0.305840405852444 0.102579555769585 -0.118898304012685 0.296679263863078 180.862673932216 81.4104326811133)" rx="4.56001701495163" ry="4.68001746271351" cx="4.56001701495163" cy="4.68001746271351" fill="#ff9700" fill-rule="evenodd" stroke-opacity="0" stroke="#000000" stroke-width="0" stroke-linecap="square" stroke-linejoin="bevel"/><ellipse id="shape08" transform="matrix(0.201805307717047 0.0676859513047681 -0.0784536914324237 0.195760432537618 177.70783047776 98.0582288075745)" rx="4.56001701495163" ry="4.68001746271351" cx="4.56001701495163" cy="4.68001746271351" fill="#ff9700" fill-rule="evenodd" stroke-opacity="0" stroke="#000000" stroke-width="0" stroke-linecap="square" stroke-linejoin="bevel"/><ellipse id="shape09" transform="matrix(0.38234754381514 0.128240220859083 -0.148641165892804 0.370894707397356 186.869290833804 103.578325174843)" rx="4.56001701495163" ry="4.68001746271351" cx="4.56001701495163" cy="4.68001746271351" fill="#ff9700" fill-rule="evenodd" stroke-opacity="0" stroke="#000000" stroke-width="0" stroke-linecap="square" stroke-linejoin="bevel"/><path id="shape9" transform="matrix(0.754859103284669 0.253181430582218 -0.295388665854791 0.737064272421801 179.664526027112 82.6163755063588)" fill="#717171" fill-rule="evenodd" stroke-opacity="0" stroke="#000000" stroke-width="0" stroke-linecap="square" stroke-linejoin="bevel" d="M0 3.60001C2.16391 3.64876 4.47615 2.51095 6.96003 0C9.02003 1.24 11.68 2.06001 13.7401 3.30001C13.1294 6.199 13.9335 7.33716 17.4601 6.96003C15.8801 7.88003 14.0001 10.06 12.42 10.98C12.085 9.46964 12.9345 7.18246 9.48003 6.30002L6.96003 5.46002C2.82232 5.43328 4.07918 6.25314 3.12001 7.62003C2.28001 6.98003 1.24 5.64002 0 3.60001Z" sodipodi:nodetypes="ccccccccc"/><path id="shape10" transform="matrix(0.754859103284669 0.253181430582218 -0.295388665854791 0.737064272421801 180.733679300716 94.5638910663299)" fill="#cccccc" fill-rule="evenodd" stroke-opacity="0" stroke="#000000" stroke-width="0" stroke-linecap="square" stroke-linejoin="bevel" d="M0 3.18001L3.36001 0C4.0593 1.76455 4.11288 2.18653 6.72002 3.48001L9.60004 4.50002C11.1692 4.81784 11.7904 4.59512 13.2 2.52001L15.4201 6.90003C11.5766 6.56413 11.0575 8.05016 9.54003 9.42003L3.36001 7.38003C4.02709 5.92304 2.90708 4.52303 0 3.18001Z" sodipodi:nodetypes="ccccccccc"/><path id="shape010" transform="matrix(0.975241231100708 0.221143711556935 -0.221143711556935 0.975241231100708 111.039563262351 58.6909883718891)" fill="none" stroke="#000000" stroke-width="3.60001343285655" stroke-linecap="round" stroke-linejoin="round" d="M56.4352 24.609C56.9522 20.9809 56.9854 19.2841 56.0719 15.3401C54.5911 8.94608 52.1806 6.67404 47.6236 2.12635C45.7362 0.242779 43.9158 -1.30405 40.6369 1.65493C37.6325 4.36617 37.3988 7.36819 35.8996 9.67033C29.6746 10.1467 20.1865 11.6444 14.5977 15.7789C12.2741 14.4298 9.75812 11.9126 8.32429 11.2086C6.5039 10.3148 3.99251 9.91924 1.70614 14.5479C-0.29048 18.5899 -0.72295 25.444 1.42552 33.9522C3.9316 43.8766 9.92265 48.578 14.8538 50.8558C19.4806 52.9929 25.4916 51.9594 31.3142 51.0379C39.0761 49.8094 42.2635 47.0936 45.752 45.2594" sodipodi:nodetypes="csssccsssssc"/><path id="shape22" transform="translate(162.337139767747, 75.8773004725451)" fill="none" stroke="#000000" stroke-width="3.60001343285655" stroke-linecap="round" stroke-linejoin="round" d="M65.1006 46.3821C70.0059 42.6616 70.3049 41.4294 72.0729 38.3626C75.3809 32.6243 75.0027 32.034 75.0056 28.2316C75.01 22.4454 70.8722 20.423 70.7773 16.3591C71.5223 10.9322 73.9173 13.1547 74.8853 7.51119C75.0036 6.09108 74.9628 5.01912 74.6541 4.30191C74.1799 3.19997 73.8285 2.66864 71.6636 0.994949C69.2787 -0.848923 65.8515 0.108317 63.6358 1.92821C60.8616 4.20692 60.387 5.36403 58.8766 8.84298C58.0683 10.7046 58.4278 15.6843 59.2051 17.9972C60.0288 20.4478 61.0104 22.562 61.6395 25.3757C62.5883 29.6201 63.0925 30.2731 61.3775 33.7479C59.9975 36.5446 55.1536 35.833 53.0486 34.7805C51.094 32.7658 48.439 28.2393 47.1139 25.2836C45.5576 21.812 38.3187 11.5109 37.8942 11.0615C33.0331 5.9156 26.8001 3.55674 23.4143 2.5927C19.6106 1.50966 9.97139 -1.16587 0 2.18119" sodipodi:nodetypes="cssccssssssscsssc"/><path id="shape31" transform="matrix(1.30947273163445 -0.241635575046277 0.261659984395161 1.41798911215676 98.1480344579977 105.413441571558)" fill="none" stroke="#000000" stroke-width="1.92000716419016" stroke-linecap="round" stroke-linejoin="round" d="M10.6647 0.127384C6.43291 -0.206045 2.92667 0.143448 0 0.845537" sodipodi:nodetypes="cc"/><path id="shape4" transform="matrix(1.29158894451596 -0.323889772030975 0.350730610255325 1.39862329047486 103.420183070258 109.765414265659)" fill="none" stroke="#000000" stroke-width="1.92000716419016" stroke-linecap="round" stroke-linejoin="round" d="M9.13614 0C5.80612 0.319936 2.51693 1.06657 0 2.88374" sodipodi:nodetypes="cc"/><path id="shape7" transform="matrix(0.997860229495818 -0.0653831965458491 0.0653831965458491 0.997860229495818 127.5366366911 101.02212077077)" fill="none" stroke="#000000" stroke-width="2.4000089552377" stroke-linecap="round" stroke-linejoin="round" d="M0.0159861 0C-0.0575222 1.08083 0.122478 1.81584 0.555988 2.20501C1.20625 2.78876 2.21164 3.10751 2.986 2.52001C3.50223 2.12834 4.31223 1.40834 5.41601 0.360001C6.4281 1.58723 7.16311 2.38223 7.62101 2.74501C8.30788 3.28918 9.75742 3.29938 10.546 2.65501C11.0718 2.22543 11.4018 1.38542 11.536 0.135" sodipodi:nodetypes="czzczzc"/><path id="shape81" transform="matrix(0.656923030259336 -0.0430438315240231 0.0430438315240231 0.656923030259336 121.248338990248 96.8042305694997)" sodipodi:type="arc" sodipodi:rx="1.80000671642827" sodipodi:ry="1.80000671642828" sodipodi:cx="1.80005615257037" sodipodi:cy="1.80000820216795" sodipodi:start="6.28318530717959" sodipodi:end="4.72807437697019" sodipodi:open="true" d="M1.82829 0.000222911C1.09777 -0.0112364 0.432797 0.420005 0.145285 1.09166C-0.142226 1.76332 0.00476815 2.54213 0.517316 3.06278C1.02986 3.58344 1.80628 3.74263 2.48236 3.46569C3.15844 3.18874 3.60006 2.53061 3.60006 1.80001" fill="#000000" fill-rule="evenodd" stroke="#000000" stroke-width="3.60001343285655" stroke-linecap="square" stroke-linejoin="bevel"/><ellipse id="shape012" transform="matrix(0.656923030259336 -0.0430438315240231 0.0430438315240231 0.656923030259336 142.743200784532 95.4248229891632)" rx="1.80000671642827" ry="1.80000671642828" cx="1.80000671642827" cy="1.80000671642828" fill="#000000" fill-rule="evenodd" stroke="#000000" stroke-width="3.60001343285655" stroke-linecap="square" stroke-linejoin="bevel"/><ellipse id="shape022" transform="matrix(0.632092082903957 -0.0414168233886486 0.0415607432143414 0.634288547406791 122.493074485558 95.6182379126687)" rx="1.80000671642827" ry="1.80000671642828" cx="1.80000671642827" cy="1.80000671642828" fill="#ffffff" fill-rule="evenodd" stroke-opacity="0" stroke="#000000" stroke-width="0" stroke-linecap="square" stroke-linejoin="bevel"/><ellipse id="shape032" transform="matrix(0.632092082903957 -0.0414168233886486 0.0415607432143414 0.634288547406791 144.101988796749 94.31141566406)" rx="1.80000671642827" ry="1.80000671642828" cx="1.80000671642827" cy="1.80000671642828" fill="#ffffff" fill-rule="evenodd" stroke-opacity="0" stroke="#000000" stroke-width="0" stroke-linecap="square" stroke-linejoin="bevel"/><path id="shape17" transform="translate(99.4601048171761, 104.711419298917)" fill="none" stroke="#000000" stroke-width="3.60001343285655" stroke-linecap="round" stroke-linejoin="round" d="M7.44131 0C4.44877 1.51749 1.15433 5.63938 0.0699781 10.6906C-0.348638 12.6406 1.1402 16.5364 3.75083 17.5883C6.54028 18.7123 9.62894 18.6386 12.8157 17.1372C17.258 15.0442 18.8881 12.2699 21.2946 9.834" sodipodi:nodetypes="csssc"/><path id="shape113" transform="translate(146.276783650868, 96.0392872244653)" fill="none" stroke="#000000" stroke-width="3.60001343285655" stroke-linecap="round" stroke-linejoin="round" d="M15.8809 0C14.4108 0.74547 9.89388 2.21889 6.50354 4.85095C2.99245 7.57674 0.621638 11.4934 0.0699762 14.0632C-0.348633 16.0132 1.1402 19.909 3.75083 20.9609C6.5403 22.0848 9.62894 22.0112 12.8157 20.5098C17.258 18.4168 18.3714 15.8852 20.1653 13.116" sodipodi:nodetypes="cssssc"/><path id="shape18" transform="translate(161.360152983332, 109.764363465757)" fill="#e0823d" stroke-opacity="0" stroke="#000000" stroke-width="0" stroke-linecap="square" stroke-linejoin="bevel" d="M0 38.7387C19.2594 38.9034 40.2197 39.1563 56.9246 40.7459C68.0033 40.3777 78.6128 43.3329 85.3517 43.0963C85.3296 32.954 82.0239 28.3916 77.6786 19.9207C70.1425 13.1324 63.4256 11.0586 52.8324 10.4122C48.2334 9.14915 38.0752 6.39103 28.6785 3.43922C19.1479 1.00534 9.15196 -0.634297 6.65455 0.236315" sodipodi:nodetypes="ccccccc"/><path id="shape114" transform="translate(164.724873152924, 122.99137247928)" fill="#ffffff" stroke-opacity="0" stroke="#000000" stroke-width="0" stroke-linecap="square" stroke-linejoin="bevel" d="M0 4.58309C2.25868 7.74491 7.90359 6.9742 11.9382 7.73942C16.303 8.56728 21.5997 9.72298 23.6229 9.57769C26.6116 8.58921 29.1794 5.34076 26.9263 3.50081C25.5443 2.37216 21.4851 2.73147 16.7352 2.10011C13.6743 1.69325 9.61165 -0.920368 6.11769 0.3411C3.01918 1.45979 0.192987 2.7303 2.19107e-14 4.45267" sodipodi:nodetypes="cccscsc"/><path id="shape013" transform="matrix(-1 0 0 1 96.6264013700488 135.525167615481)" fill="#000000" fill-opacity="0.207843137254902" fill-rule="evenodd" stroke-opacity="0" stroke="#000000" stroke-width="0" stroke-linecap="square" stroke-linejoin="bevel" d="M10.6513 0.365939C10.5901 -0.31713 5.66847 -0.140795 3.38431 1.72829C3.09568 3.48759 1.97344 3.36102 1.41805 4.60387C1.47416 6.211 -1.25867 10.2254 0.72012 10.646C1.41619 8.74318 5.03851 6.75601 7.85117 3.43917C11.0788 1.64078 13.2368 0.851944 14.3252 1.07266" sodipodi:nodetypes="cccccc"/><path id="shape014" transform="matrix(0.975241231100708 0.221143711556935 -0.221143711556935 0.975241231100708 111.21781744125 58.5632374784053)" fill="none" stroke-opacity="0.231372549019608" stroke="#000000" stroke-width="3.60001343285655" stroke-linecap="round" stroke-linejoin="round" d="M57.1886 25.7364C57.7056 22.1083 57.7388 20.4115 56.8253 16.4675C55.3445 10.0735 52.934 7.80149 48.377 3.2538C46.4896 1.37023 43.9032 -1.73679 40.6243 1.22219C37.6199 3.93343 37.2684 7.09007 35.7692 9.39221C29.5442 9.86858 20.0746 11.5024 14.4858 15.6369C12.1622 14.2878 10.5739 12.4769 9.14006 11.7729C7.31967 10.8791 4.07913 9.19573 1.79276 13.8244C-0.20386 17.8664 -0.786535 26.6821 1.36194 35.1903C3.86802 45.1147 10.6761 49.7054 15.6072 51.9832C20.234 54.1203 26.245 53.0868 32.0676 52.1653C39.8295 50.9368 43.0169 48.221 46.5054 46.3868" sodipodi:nodetypes="csssccsssssc"/><path id="shape19" transform="translate(103.874610515345, 115.683823039651)" fill="none" stroke-opacity="0.231372549019608" stroke="#000000" stroke-width="3.60001343285655" stroke-linecap="round" stroke-linejoin="round" d="M0 7.7543C2.78945 8.8783 5.87811 8.8046 9.06487 7.3032C13.5072 5.2102 15.1373 2.4359 17.5438 0" sodipodi:nodetypes="csc"/><path id="shape115" transform="translate(146.238515940306, 110.947394817054)" fill="none" stroke-opacity="0.231372549019608" stroke="#000000" stroke-width="3.60001343285655" stroke-linecap="round" stroke-linejoin="round" d="M0.0511925 0.64352C-0.367417 2.59352 1.84214 6.1393 4.45277 7.1912C7.24224 8.3151 10.3309 8.2415 13.5176 6.7401C17.9599 4.6471 18.4367 2.7692 20.2306 0" sodipodi:nodetypes="cssc"/><path id="shape023" transform="matrix(-1 0 0 1 141.694217114671 121.923166765368)" fill="#000000" fill-opacity="0.207843137254902" fill-rule="evenodd" stroke-opacity="0" stroke="#000000" stroke-width="0" stroke-linecap="square" stroke-linejoin="bevel" d="M8.67205 3.05311e-15C6.09576 0.633649 0.55415 3.09423 0 5.67397C0.0586584 8.61549 -0.274922 8.85851 1.17324 11.0999C1.90088 7.6171 4.71561 3.64546 6.90509 3.34854C8.43069 -0.416729 9.03507 1.43662 8.9456 0" sodipodi:nodetypes="ccccc"/><path id="shape033" transform="matrix(-1 0 0 1 216.998315317503 118.061072042235)" fill="#000000" fill-opacity="0.207843137254902" fill-rule="evenodd" stroke-opacity="0" stroke="#000000" stroke-width="0" stroke-linecap="square" stroke-linejoin="bevel" d="M5.07377 1.68508C4.44967 2.3238 4.46295 2.72131 3.82234 3.76228C3.06943 4.65011 1.80387 7.06158 0.838352 8.32327C-0.73471 10.3789 0.29076 11.1849 0.822476 13.7216C2.15131 12.293 2.05893 10.6789 3.02844 9.38655C4.00598 8.08348 5.55805 7.62881 6.11905 5.34197C7.5707 2.19726 6.87488 3.32391 10.4703 0" sodipodi:nodetypes="ccccccc"/><path id="shape042" transform="matrix(-1 0 0 1 197.347106636208 137.481013590976)" fill="#000000" fill-opacity="0.207843137254902" fill-rule="evenodd" stroke-opacity="0" stroke="#000000" stroke-width="0" stroke-linecap="square" stroke-linejoin="bevel" d="M10.5973 0.105883C8.88671 -0.302865 7.87954 0.520871 5.39856 1.73412C3.08836 2.86386 2.00799 2.60232 1.11778 4.05877C-0.000847346 6.75067 -0.231638 7.0452 0.211422 8.7688C1.15632 6.94166 3.02418 5.84969 4.70138 5.16198C5.80932 4.70769 6.64403 4.84766 7.81366 2.43265C10.0789 1.32623 9.20541 1.32045 10.5973 0.105883" sodipodi:nodetypes="ccccccc"/><path id="shape121" transform="translate(157.601411789101, 122.208435488454)" fill="#000000" fill-opacity="0.164705882352941" stroke-opacity="0" stroke="#000000" stroke-width="0" stroke-linecap="square" stroke-linejoin="bevel" d="M0.0758946 5.05781C1.37837 6.67206 1.10997 7.94191 3.65026 8.25272C6.47046 8.59777 15.2115 8.15945 17.7944 8.59317C23.1057 9.48507 31.338 10.7975 33.7999 10.641C37.4367 9.57603 39.0088 5.69167 36.2671 3.70941C34.5854 2.49347 29.6145 3.37111 23.8346 2.69092C20.128 2.13291 15.2066 -1.10055 10.6799 0.38829C9.18899 0.536442 8.25734 0.271757 6.26665 0.593994C4.34535 0.922939 2.58742 2.28014 1.59442 2.56405C-0.709865 3.29336 0.200469 4.07346 0.0758946 5.05781" sodipodi:nodetypes="ccccsccccc"/><path id="shape131" transform="matrix(-0.998626048299253 0.0524024394300198 -0.0524024394300198 -0.998626048299253 120.963781570395 137.575847769423)" fill="#000000" fill-opacity="0.164705882352941" stroke-opacity="0" stroke="#000000" stroke-width="0" stroke-linecap="square" stroke-linejoin="bevel" d="M1.79796 2.98559C2.70676 4.62392 0.86902 4.86394 0 6.27878C1.39011 6.53937 4.06609 6.33943 5.33923 6.66699C7.3136 5.14835 7.26473 5.9149 7.62474 4.50554C8.04064 3.08709 8.97816 3.25086 7.62674 1.75378C6.79781 0.835461 7.80609 0.650153 4.95711 0.136449C3.13008 -0.284981 2.69755 0.382032 1.71631 0.625397C0.769279 0.873829 1.85936 2.24218 1.79796 2.98559" sodipodi:nodetypes="ccccsccc"/><path id="shape141" transform="translate(164.655582572614, 123.056064453969)" fill="#ffeee3" stroke-opacity="0" stroke="#000000" stroke-width="0" stroke-linecap="square" stroke-linejoin="bevel" d="M0 4.58309C2.25868 7.74491 7.90359 6.9742 11.9382 7.73942C16.303 8.56728 21.5997 9.72298 23.6229 9.57769C26.6116 8.58921 29.1794 5.34076 26.9263 3.50081C25.5443 2.37216 21.4851 2.73147 16.7352 2.10011C13.6743 1.69325 9.61165 -0.920368 6.11769 0.3411C3.01918 1.45979 0.192987 2.7303 2.19107e-14 4.45267" sodipodi:nodetypes="cccscsc"/><path id="shape110" transform="matrix(0.740071394754267 0 -0.435037344108831 0.330508457532266 60.4423362165047 156.635869639927)" fill="#000000" fill-opacity="0.352941176470588" stroke-opacity="0" stroke="#000000" stroke-width="0" stroke-linecap="square" stroke-linejoin="bevel" d="M3.87495 18.7959C8.10713 18.9928 9.54263 18.2586 12.3422 18.1216C13.2798 13.7974 13.7277 11.1272 13.5934 9.6054C13.2262 5.4442 13.4822 0.606854 6.7523 0.0339942C-0.11662 -0.5507 -0.483905 6.54138 0.285848 10.9625C0.584987 12.6806 1.89602 16.4582 3.87495 18.7959" sodipodi:nodetypes="ccsssc"/><path id="shape116" transform="matrix(-0.73466099577782 -0.00406782492728487 -0.444113027714268 0.330483423639853 85.8163310577659 175.178529502355)" fill="#000000" fill-opacity="0.352941176470588" stroke-opacity="0" stroke="#000000" stroke-width="0" stroke-linecap="square" stroke-linejoin="bevel" d="M2.76436 13.2135C5.78356 13.3519 7.67182 11.9569 9.66902 11.8606C10.3379 8.82065 9.79323 7.82243 9.69742 6.7526C9.43547 3.82728 9.61809 0.426619 4.81704 0.0238979C-0.0831962 -0.387142 -0.345214 4.59859 0.203922 7.70664C0.417325 8.91447 1.35261 11.5701 2.76436 13.2135" sodipodi:nodetypes="ccsssc"/><path id="shape117" transform="matrix(0.690483680607417 0.0349363676532783 -0.505710838160775 0.328656797762579 155.619588122763 159.945089370484)" fill="#000000" fill-opacity="0.352941176470588" stroke-opacity="0" stroke="#000000" stroke-width="0" stroke-linecap="square" stroke-linejoin="bevel" d="M3.32773 16.6778C6.96224 16.8525 8.19501 16.201 10.5992 16.0795C11.4044 12.2426 11.7891 9.87327 11.6737 8.52296C11.3584 4.83069 11.5782 0.538467 5.79874 0.0301633C-0.100151 -0.488641 -0.415568 5.80423 0.24548 9.72713C0.502375 11.2516 1.62826 14.6035 3.32773 16.6778" sodipodi:nodetypes="ccsssc"/><path id="shape118" transform="matrix(0.740071394754267 0 -0.429890097216619 0.330508457532266 112.052753466747 168.299051982793)" fill="#000000" fill-opacity="0.352941176470588" stroke-opacity="0" stroke="#000000" stroke-width="0" stroke-linecap="square" stroke-linejoin="bevel" d="M12.4732 40.9206C14.582 41.0164 15.6364 41.1318 16.8905 40.9653C18.2856 40.78 19.834 40.3014 21.3859 40.2272C22.3728 35.7806 21.986 35.4315 22.1902 32.0444C22.3499 29.3966 21.331 27.1211 22.2549 23.5693C25.7016 22.5793 30.4226 21.1907 31.2857 18.0985C32.5946 13.4088 34.752 4.51974 28.5219 4.61557C27.7204 4.6279 25.8069 6.14158 25.1801 9.09973C24.1298 14.0566 23.9583 14.409 21.3071 14.7121C21.5439 13.3641 22.5488 7.83908 21.586 4.40564C21.0986 2.66724 21.2089 0.493457 16.8081 0.0256556C12.8384 -0.396321 11.7356 4.51665 11.6431 5.2374C11.1287 9.24649 11.4682 12.241 10.4545 16.9075C7.50965 16.1523 8.25332 12.7154 6.47823 10.6728C4.58738 8.49691 1.77066 10.4204 0.67723 12.0412C-0.664789 14.0305 0.10537 19.3151 1.95463 22.3253C4.76814 26.9052 6.61287 27.3094 10.2692 27.5177C10.1423 30.1692 10.2162 32.4903 10.54 34.3072C10.8549 36.0739 10.3901 38.5167 12.4732 40.9206" sodipodi:nodetypes="cccscssscssscssscsc"/><path id="shape119" transform="matrix(0.70345313945563 0.0176250403424752 -0.705443106181463 0.330038177266334 199.525948028274 178.477900696797)" fill="#000000" fill-opacity="0.352941176470588" stroke-opacity="0" stroke="#000000" stroke-width="0" stroke-linecap="square" stroke-linejoin="bevel" d="M2.77098 29.4649C5.79742 29.7735 6.82393 28.6225 8.8259 28.4079C9.49638 21.6291 9.81671 17.4432 9.72062 15.0576C9.45808 8.53443 9.6411 0.951316 4.82857 0.0532898C-0.0833957 -0.863287 -0.34604 10.2544 0.20441 17.185C0.418326 19.8783 1.35584 25.8002 2.77098 29.4649" sodipodi:nodetypes="ccsssc"/><path id="shape1110" transform="matrix(-0.771020985570426 0.0157545921969007 -0.630890588992216 0.330132751063973 201.925188801849 184.238867151607)" fill="#000000" fill-opacity="0.352941176470588" stroke-opacity="0" stroke="#000000" stroke-width="0" stroke-linecap="square" stroke-linejoin="bevel" d="M1.99971 13.6863C4.14052 13.8296 4.86664 13.2952 6.28278 13.1955C6.75705 10.048 6.98365 8.10437 6.91567 6.99668C6.72996 3.96782 6.85942 0.446806 3.45518 0.0298316C-0.0193942 -0.395756 -0.250317 3.82063 0.139055 7.03867C0.290373 8.28923 0.998678 11.9847 1.99971 13.6863" sodipodi:nodetypes="ccsssc"/><path id="shape122" transform="matrix(-0.705855578168812 -0.0164990533491963 -0.703039257962816 0.330096382499018 243.547114000055 157.545301741962)" fill="#000000" fill-opacity="0.352941176470588" stroke-opacity="0" stroke="#000000" stroke-width="0" stroke-linecap="square" stroke-linejoin="bevel" d="M8.91307 29.1944C10.4316 29.2594 11.284 29.217 12.1871 29.104C13.1917 28.9783 14.5292 29.1138 15.7845 28.448C16.5744 25.2037 16.1268 24.4998 16.2739 22.2018C16.3889 20.4054 15.8122 19.6562 16.4775 17.2465C18.9595 16.5748 21.0441 15.9657 22.574 13.7504C24.4597 11.0199 25.0457 3.50893 20.5593 3.57395C19.9822 3.58231 18.6042 4.60926 18.1529 6.61621C17.3965 9.97918 17.273 10.2183 15.3639 10.4239C15.5344 9.50935 15.5754 5.52321 14.8821 3.19381C14.5311 2.0144 14.5295 0.332781 11.3604 0.0154029C8.50176 -0.270886 7.93008 3.52247 7.86347 4.01146C7.49305 6.73142 8.27876 8.74739 7.54878 11.9134C5.42816 11.401 5.96368 9.06925 4.68542 7.68345C3.32379 6.20723 1.10934 7.75357 0.321945 8.8532C-0.64446 10.2028 0.747991 14.3861 2.07967 16.4283C4.10571 19.5355 4.99102 19.3238 7.62399 19.4651C7.53261 21.264 7.37718 22.4855 7.61035 23.7181C7.83711 24.9167 7.81974 27.3479 8.91307 29.1944" sodipodi:nodetypes="cccscssscssscssscsc"/><path id="shape120" transform="matrix(-0.786970340016454 0.0170102889276091 -0.890977549259662 0.330070432742705 274.663636975427 177.989101759217)" fill="#000000" fill-opacity="0.352941176470588" stroke-opacity="0" stroke="#000000" stroke-width="0" stroke-linecap="square" stroke-linejoin="bevel" d="M4.68547 21.347C7.53484 21.7592 8.07615 21.7055 9.75128 21.4505C11.1323 21.2403 12.7242 21.2867 14.7688 20.2756C15.9438 15.5687 16.2532 12.0187 16.0848 10.3622C15.6247 5.83278 15.4535 2.34314 8.11592 0.350252C-0.214019 -1.91216 -0.59262 7.34204 0.372043 12.1544C0.746931 14.0245 2.20544 18.8024 4.68547 21.347" sodipodi:nodetypes="cccsssc"/><path id="shape1111" transform="matrix(0.692707916064595 0.0164990533491964 -0.96608439195125 0.330096382499018 297.739652458518 152.564754128541)" fill="#000000" fill-opacity="0.352941176470588" stroke-opacity="0" stroke="#000000" stroke-width="0" stroke-linecap="square" stroke-linejoin="bevel" d="M1.41837 21.6846C2.6188 21.7355 3.21901 21.7965 3.93289 21.7085C4.72702 21.6101 5.60842 21.3565 6.49187 21.3172C7.0536 18.9608 6.83343 18.7758 6.94963 16.981C7.04054 15.5779 6.72607 15.3041 7.25198 13.4219C9.21397 12.8972 11.6359 11.2294 12.1272 9.59081C12.8723 7.10559 14.3108 3.3197 10.7645 3.37047C10.3082 3.37699 9.01869 3.59193 8.66185 5.15953C8.06401 7.78628 7.95617 7.63562 6.44696 7.79624C6.58175 7.08192 7.15383 4.1541 6.60569 2.33464C6.32832 1.41343 6.39108 0.261494 3.88594 0.0135954C1.62625 -0.210018 0.998495 2.39346 0.945829 2.7754C0.653026 4.89991 -0.0217885 9.15731 0.000540923 10.9392C0.0322767 13.4716 0.133594 17.2173 0.317912 18.18C0.497173 19.1162 0.232577 20.4107 1.41837 21.6846" sodipodi:nodetypes="cccscssscsssssc"/><path id="shape123" transform="translate(48.8598636792411, 144.684186275019)" fill="#00c868" stroke-opacity="0" stroke="#000000" stroke-width="0" stroke-linecap="square" stroke-linejoin="bevel" d="M3.87495 18.7959C8.10713 18.9928 9.54263 18.2586 12.3422 18.1216C13.2798 13.7974 13.7277 11.1272 13.5934 9.6054C13.2262 5.4442 13.4822 0.606854 6.7523 0.0339942C-0.11662 -0.5507 -0.483905 6.54138 0.285848 10.9625C0.584987 12.6806 1.89602 16.4582 3.87495 18.7959" sodipodi:nodetypes="ccsssc"/><path id="shape1112" transform="matrix(-0.999924256424178 -0.0123077786198186 -0.0123077786198186 0.999924256424178 80.4840416043161 166.497825584464)" fill="#00cb48" stroke-opacity="0" stroke="#000000" stroke-width="0" stroke-linecap="square" stroke-linejoin="bevel" d="M2.76436 13.2135C5.78356 13.3519 6.80764 12.8358 8.80483 12.7395C9.4737 9.69958 9.79323 7.82243 9.69742 6.7526C9.43547 3.82728 9.61809 0.426619 4.81704 0.0238979C-0.0831962 -0.387142 -0.345214 4.59859 0.203922 7.70664C0.417325 8.91447 1.35261 11.5701 2.76436 13.2135" sodipodi:nodetypes="ccsssc"/><path id="shape124" transform="matrix(0.994397541946392 0.105704912709738 -0.105704912709738 0.994397541946392 146.120505038075 148.556475735267)" fill="#00c868" stroke-opacity="0" stroke="#000000" stroke-width="0" stroke-linecap="square" stroke-linejoin="bevel" d="M3.32773 16.6778C6.96224 16.8525 8.19501 16.201 10.5992 16.0795C11.4044 12.2426 11.7891 9.87327 11.6737 8.52296C11.3584 4.83069 11.5782 0.538467 5.79874 0.0301633C-0.100151 -0.488641 -0.415568 5.80423 0.24548 9.72713C0.502375 11.2516 1.62826 14.6035 3.32773 16.6778" sodipodi:nodetypes="ccsssc"/><path id="shape132" transform="matrix(0.994397541946392 0.105704912709738 -0.105704912709738 0.994397541946392 128.75037277587 144.280173815071)" fill="#468768" stroke-opacity="0" stroke="#000000" stroke-width="0" stroke-linecap="square" stroke-linejoin="bevel" d="M1.25377 7.19271C2.62313 7.26805 3.08759 6.98707 3.99341 6.93468C4.29678 5.27992 4.44172 4.25809 4.39824 3.67573C4.27945 2.08335 4.36226 0.232227 2.18476 0.0130086C-0.0377335 -0.210738 -0.156571 2.50322 0.0924882 4.19506C0.189278 4.85253 0.613472 6.29811 1.25377 7.19271" sodipodi:nodetypes="ccsssc"/><path id="shape142" transform="matrix(0.998577100660468 0.0533270478887958 -0.0533270478887958 0.998577100660468 178.260955527922 159.497933503258)" fill="#00cb48" stroke-opacity="0" stroke="#000000" stroke-width="0" stroke-linecap="square" stroke-linejoin="bevel" d="M2.77098 29.4649C5.79742 29.7735 6.82393 28.6225 8.8259 28.4079C9.49638 21.6291 9.81671 17.4432 9.72062 15.0576C9.45808 8.53443 9.6411 0.951316 4.82857 0.0532898C-0.0833957 -0.863287 -0.34604 10.2544 0.20441 17.185C0.418326 19.8783 1.35584 25.8002 2.77098 29.4649" sodipodi:nodetypes="ccsssc"/><path id="shape151" transform="matrix(-0.998863247037312 0.0476677429513664 0.0476677429513664 0.998863247037312 193.842615972482 175.00395954849)" fill="#00cb48" stroke-opacity="0" stroke="#000000" stroke-width="0" stroke-linecap="square" stroke-linejoin="bevel" d="M1.99971 13.6863C4.14052 13.8296 4.86664 13.2952 6.28278 13.1955C6.75705 10.048 6.98365 8.10437 6.91567 6.99668C6.72996 3.96782 6.85942 0.446806 3.45518 0.0298316C-0.0193942 -0.395756 -0.250317 3.82063 0.139055 7.03867C0.290373 8.28923 0.998678 11.9847 1.99971 13.6863" sodipodi:nodetypes="ccsssc"/><path id="shape161" transform="matrix(-0.998674694158114 0.051467030691487 0.051467030691487 0.998674694158114 255.031124106068 163.460069951619)" fill="#00cb48" stroke-opacity="0" stroke="#000000" stroke-width="0" stroke-linecap="square" stroke-linejoin="bevel" d="M4.68547 21.347C7.53484 21.7592 8.07615 21.7055 9.75128 21.4505C11.1323 21.2403 12.7242 21.2867 14.7688 20.2756C15.9438 15.5687 16.2532 12.0187 16.0848 10.3622C15.6247 5.83278 15.4535 2.34314 8.11592 0.350252C-0.214019 -1.91216 -0.59262 7.34204 0.372043 12.1544C0.746931 14.0245 2.20544 18.8024 4.68547 21.347" sodipodi:nodetypes="cccsssc"/><path id="shape171" transform="matrix(-0.998674694158114 0.051467030691487 0.051467030691487 0.998674694158114 260.337940908382 145.644041000097)" fill="#468768" stroke-opacity="0" stroke="#000000" stroke-width="0" stroke-linecap="square" stroke-linejoin="bevel" d="M0.985949 7.60008C2.0628 7.67969 2.42803 7.38281 3.14037 7.32746C3.37893 5.57893 3.49291 4.49925 3.45872 3.8839C3.36531 2.20135 3.43042 0.24538 1.71806 0.0137454C-0.0296734 -0.222674 -0.123125 2.64499 0.0727314 4.43264C0.148845 5.12733 0.482425 6.65483 0.985949 7.60008" sodipodi:nodetypes="ccsssc"/><path id="shape181" transform="translate(89.4866795340291, 141.574970169144)" fill="#00cb48" stroke-opacity="0" stroke="#000000" stroke-width="0" stroke-linecap="square" stroke-linejoin="bevel" d="M12.4732 40.9206C14.582 41.0164 15.6364 41.1318 16.8905 40.9653C18.2856 40.78 19.834 40.3014 21.3859 40.2272C22.3728 35.7806 21.986 35.4315 22.1902 32.0444C22.3499 29.3966 21.331 27.1211 22.2549 23.5693C25.7016 22.5793 30.4226 21.1907 31.2857 18.0985C32.5946 13.4088 34.752 4.51974 28.5219 4.61557C27.7204 4.6279 25.8069 6.14158 25.1801 9.09973C24.1298 14.0566 23.9583 14.409 21.3071 14.7121C21.5439 13.3641 22.5488 7.83908 21.586 4.40564C21.0986 2.66724 21.2089 0.493457 16.8081 0.0256556C12.8384 -0.396321 11.7356 4.51665 11.6431 5.2374C11.1287 9.24649 11.4682 12.241 10.4545 16.9075C7.50965 16.1523 8.25332 12.7154 6.47823 10.6728C4.58738 8.49691 1.77066 10.4204 0.67723 12.0412C-0.664789 14.0305 0.10537 19.3151 1.95463 22.3253C4.76814 26.9052 6.61287 27.3094 10.2692 27.5177C10.1423 30.1692 10.2162 32.4903 10.54 34.3072C10.8549 36.0739 10.3901 38.5167 12.4732 40.9206" sodipodi:nodetypes="cccscssscssscssscsc"/><path id="shape191" transform="matrix(-0.998753208809467 -0.049920215271906 -0.049920215271906 0.998753208809467 227.165588087027 138.568885836678)" fill="#00c868" stroke-opacity="0" stroke="#000000" stroke-width="0" stroke-linecap="square" stroke-linejoin="bevel" d="M8.91307 29.1944C10.4316 29.2594 11.284 29.217 12.1871 29.104C13.1917 28.9783 14.5292 29.1138 15.7845 28.448C16.5744 25.2037 16.1268 24.4998 16.2739 22.2018C16.3889 20.4054 15.8122 19.6562 16.4775 17.2465C18.9595 16.5748 21.0441 15.9657 22.574 13.7504C24.4597 11.0199 25.0457 3.50893 20.5593 3.57395C19.9822 3.58231 18.6042 4.60926 18.1529 6.61621C17.3965 9.97918 17.273 10.2183 15.3639 10.4239C15.5344 9.50935 15.5754 5.52321 14.8821 3.19381C14.5311 2.0144 14.5295 0.332781 11.3604 0.0154029C8.50176 -0.270886 7.93008 3.52247 7.86347 4.01146C7.49305 6.73142 8.27876 8.74739 7.54878 11.9134C5.42816 11.401 5.96368 9.06925 4.68542 7.68345C3.32379 6.20723 1.10934 7.75357 0.321945 8.8532C-0.64446 10.2028 0.747991 14.3861 2.07967 16.4283C4.10571 19.5355 4.99102 19.3238 7.62399 19.4651C7.53261 21.264 7.37718 22.4855 7.61035 23.7181C7.83711 24.9167 7.81974 27.3479 8.91307 29.1944" sodipodi:nodetypes="cccscssscssscssscsc"/><path id="shape1101" transform="matrix(-0.998753208809467 -0.0499202152719062 -0.0499202152719062 0.998753208809467 171.158178130092 140.539212524387)" fill="#468768" stroke-opacity="0" stroke="#000000" stroke-width="0" stroke-linecap="square" stroke-linejoin="bevel" d="M0.695165 11.9705C1.30033 11.9986 1.60292 12.0323 1.96281 11.9837C2.36315 11.9294 2.80748 11.7894 3.25286 11.7677C3.53603 10.4669 3.42505 10.3648 3.48363 9.37399C3.52946 8.59942 3.23707 7.93377 3.5022 6.89476C4.49129 6.60513 5.8461 6.19896 6.09377 5.2944C6.4694 3.92249 7.08848 1.32217 5.30066 1.3502C5.07064 1.3538 4.52154 1.7966 4.34166 2.66196C4.04026 4.112 3.99105 4.21508 3.23022 4.30375C3.29817 3.90942 3.58657 2.29318 3.31024 1.28879C3.1704 0.780252 3.20205 0.144352 1.93914 0.00750505C0.799964 -0.115936 0.483495 1.32126 0.45695 1.5321C0.309335 2.70489 0.0534582 5.2814 0.0278329 5.84938C-0.048837 7.54877 0.0474726 9.50442 0.140396 10.0359C0.230762 10.5527 0.0973776 11.2673 0.695165 11.9705" sodipodi:nodetypes="cccscssscsssssc"/><path id="shape1113" transform="matrix(-0.998753208809467 -0.0499202152719062 -0.0499202152719062 0.998753208809467 34.2815050300967 146.266173547047)" fill="#468768" stroke-opacity="0" stroke="#000000" stroke-width="0" stroke-linecap="square" stroke-linejoin="bevel" d="M3.57943 11.9705C4.1846 11.9986 4.48718 12.0323 4.84707 11.9837C5.24741 11.9294 5.69175 11.7894 6.13712 11.7677C6.4203 10.4669 6.30931 10.3648 6.36789 9.37399C6.41372 8.59942 6.12134 7.93377 6.38647 6.89476C7.37556 6.60513 8.73036 6.19896 8.97803 5.2944C9.35367 3.92249 9.97274 1.32217 8.18493 1.3502C7.95491 1.3538 7.40581 1.7966 7.22592 2.66196C6.92453 4.112 6.87531 4.21508 6.11448 4.30375C6.18243 3.90942 6.47083 2.29318 6.1945 1.28879C6.05467 0.780252 6.08631 0.144352 4.8234 0.00750505C3.68423 -0.115936 3.36776 1.32126 3.34121 1.5321C3.1936 2.70489 3.29102 3.58088 3.00012 4.94596C2.15504 4.72507 2.36845 3.71965 1.85905 3.12213C1.31644 2.48561 0.508124 3.04829 0.194345 3.52243C-0.190774 4.10436 0.0302377 5.65029 0.560918 6.53084C1.36831 7.8706 1.89769 7.98887 2.94695 8.0498C2.91053 8.82544 2.93174 9.50442 3.02466 10.0359C3.11503 10.5527 2.98164 11.2673 3.57943 11.9705" sodipodi:nodetypes="cccscssscssscssscsc"/><path id="shape1121" transform="matrix(0.998753208809467 0.0499202152719062 -0.0499202152719062 0.998753208809467 276.455796367232 138.038480619258)" fill="#00c868" stroke-opacity="0" stroke="#000000" stroke-width="0" stroke-linecap="square" stroke-linejoin="bevel" d="M1.41837 21.6846C2.6188 21.7355 3.21901 21.7965 3.93289 21.7085C4.72702 21.6101 5.60842 21.3565 6.49187 21.3172C7.0536 18.9608 6.83343 18.7758 6.94963 16.981C7.04054 15.5779 6.72607 15.3041 7.25198 13.4219C9.21397 12.8972 11.6359 11.2294 12.1272 9.59081C12.8723 7.10559 14.3108 3.3197 10.7645 3.37047C10.3082 3.37699 9.01869 3.59193 8.66185 5.15953C8.06401 7.78628 7.95617 7.63562 6.44696 7.79624C6.58175 7.08192 7.15383 4.1541 6.60569 2.33464C6.32832 1.41343 6.39108 0.261494 3.88594 0.0135954C1.62625 -0.210018 0.998495 2.39346 0.945829 2.7754C0.653026 4.89991 -0.0217885 9.15731 0.000540923 10.9392C0.0322767 13.4716 0.133594 17.2173 0.317912 18.18C0.497173 19.1162 0.232577 20.4107 1.41837 21.6846" sodipodi:nodetypes="cccscssscsssssc"/>
</svg>
